# xmcd
#
# Track frame offsets: 
#        150
#        12996
#        29471
#        54757
#
# Disc length: 899 seconds
#
# Revision: 0
# Processed by: cddbd v1.5.2PL0 Copyright (c) Steve Scherf et al.
# Submitted via: ExactAudioCopy v0.99pb3
#
DISCID=25038104
DTITLE=Chris T-T - You Can Be Flirty
DYEAR=2000
DGENRE=Snowstorm
TTITLE0=You Can Be Flirty
TTITLE1=Send In The Clowns
TTITLE2=Sideshow Mel
TTITLE3=Tendon #3
EXTD=
EXTT0=
EXTT1=
EXTT2=
EXTT3=
PLAYORDER=
